<?xml version="1.0" encoding="UTF-8"?>
<svg xmlns="http://www.w3.org/2000/svg" xmlns:xlink="http://www.w3.org/1999/xlink" width="30px" height="30px" viewBox="0 0 30 30" version="1.1">
<g id="surface1">
<path style=" stroke:none;fill-rule:nonzero;fill:rgb(100%,100%,100%);fill-opacity:1;" d="M 29.933594 29.933594 L 0 29.933594 L 0 0 L 29.933594 0 Z M 29.933594 29.933594 "/>
<path style=" stroke:none;fill-rule:nonzero;fill:rgb(0%,43.529412%,81.176471%);fill-opacity:1;" d="M 29.933594 16.214844 L 29.933594 0.0117188 L 0 0.0117188 L 0 29.945312 L 29.933594 29.945312 L 29.933594 21.214844 C 29.867188 21.214844 29.933594 16.214844 29.933594 16.214844 "/>
<path style=" stroke:none;fill-rule:nonzero;fill:rgb(100%,100%,100%);fill-opacity:1;" d="M 26.265625 14.546875 L 28.535156 14.546875 L 28.535156 9.28125 L 26.066406 9.28125 L 26.066406 10.011719 L 25.601562 9.28125 L 23.464844 9.28125 L 23.464844 10.214844 L 23.066406 9.28125 L 19.132812 9.28125 C 19 9.28125 18.867188 9.347656 18.734375 9.347656 C 18.601562 9.347656 18.535156 9.414062 18.398438 9.480469 C 18.265625 9.546875 18.199219 9.546875 18.066406 9.613281 L 18.066406 9.28125 L 6.800781 9.28125 L 6.464844 10.148438 L 6.132812 9.28125 L 3.464844 9.28125 L 3.464844 10.214844 L 3.066406 9.28125 L 0.933594 9.28125 L 0 11.546875 L 0 14.546875 L 1.535156 14.546875 L 1.800781 13.8125 L 2.332031 13.8125 L 2.601562 14.546875 L 14.332031 14.546875 L 14.332031 13.878906 L 14.800781 14.546875 L 18.066406 14.546875 L 18.066406 14.148438 C 18.132812 14.214844 18.265625 14.214844 18.332031 14.28125 C 18.398438 14.347656 18.535156 14.347656 18.601562 14.414062 C 18.734375 14.480469 18.867188 14.480469 19 14.480469 L 21.398438 14.480469 L 21.667969 13.746094 L 22.199219 13.746094 L 22.464844 14.480469 L 25.734375 14.480469 L 25.734375 13.8125 Z M 29.933594 21.214844 L 29.933594 16.28125 L 11.601562 16.28125 L 11.132812 16.945312 L 10.667969 16.28125 L 5.332031 16.28125 L 5.332031 21.546875 L 10.667969 21.546875 L 11.132812 20.878906 L 11.601562 21.546875 L 14.933594 21.546875 L 14.933594 20.414062 L 14.800781 20.414062 C 15.265625 20.414062 15.667969 20.347656 16 20.214844 L 16 21.613281 L 18.398438 21.613281 L 18.398438 20.945312 L 18.867188 21.613281 L 28.800781 21.613281 C 29.199219 21.480469 29.601562 21.414062 29.933594 21.214844 Z M 29.933594 21.214844 "/>
<path style=" stroke:none;fill-rule:nonzero;fill:rgb(0%,43.529412%,81.176471%);fill-opacity:1;" d="M 28.800781 19.945312 L 27 19.945312 L 27 20.679688 L 28.734375 20.679688 C 29.464844 20.679688 29.933594 20.214844 29.933594 19.546875 C 29.933594 18.878906 29.535156 18.546875 28.867188 18.546875 L 28.066406 18.546875 C 27.867188 18.546875 27.734375 18.414062 27.734375 18.214844 C 27.734375 18.011719 27.867188 17.878906 28.066406 17.878906 L 29.601562 17.878906 L 29.933594 17.148438 L 28.132812 17.148438 C 27.398438 17.148438 26.933594 17.613281 26.933594 18.214844 C 26.933594 18.878906 27.332031 19.214844 28 19.214844 L 28.800781 19.214844 C 29 19.214844 29.132812 19.347656 29.132812 19.546875 C 29.199219 19.8125 29.066406 19.945312 28.800781 19.945312 Z M 25.535156 19.945312 L 23.734375 19.945312 L 23.734375 20.679688 L 25.464844 20.679688 C 26.199219 20.679688 26.667969 20.214844 26.667969 19.546875 C 26.667969 18.878906 26.265625 18.546875 25.601562 18.546875 L 24.800781 18.546875 C 24.601562 18.546875 24.464844 18.414062 24.464844 18.214844 C 24.464844 18.011719 24.601562 17.878906 24.800781 17.878906 L 26.332031 17.878906 L 26.667969 17.148438 L 24.867188 17.148438 C 24.132812 17.148438 23.667969 17.613281 23.667969 18.214844 C 23.667969 18.878906 24.066406 19.214844 24.734375 19.214844 L 25.535156 19.214844 C 25.734375 19.214844 25.867188 19.347656 25.867188 19.546875 C 25.933594 19.8125 25.734375 19.945312 25.535156 19.945312 Z M 23.199219 17.8125 L 23.199219 17.078125 L 20.398438 17.078125 L 20.398438 20.613281 L 23.199219 20.613281 L 23.199219 19.878906 L 21.199219 19.878906 L 21.199219 19.148438 L 23.132812 19.148438 L 23.132812 18.414062 L 21.199219 18.414062 L 21.199219 17.746094 L 23.199219 17.746094 Z M 18.667969 17.8125 C 19 17.8125 19.132812 18.011719 19.132812 18.214844 C 19.132812 18.414062 19 18.613281 18.667969 18.613281 L 17.667969 18.613281 L 17.667969 17.746094 Z M 17.667969 19.347656 L 18.066406 19.347656 L 19.132812 20.613281 L 20.132812 20.613281 L 18.933594 19.28125 C 19.535156 19.148438 19.867188 18.746094 19.867188 18.214844 C 19.867188 17.546875 19.398438 17.078125 18.667969 17.078125 L 16.800781 17.078125 L 16.800781 20.613281 L 17.601562 20.613281 Z M 15.535156 18.28125 C 15.535156 18.546875 15.398438 18.746094 15.066406 18.746094 L 14 18.746094 L 14 17.8125 L 15 17.8125 C 15.332031 17.8125 15.535156 18.011719 15.535156 18.28125 Z M 13.199219 17.078125 L 13.199219 20.613281 L 14 20.613281 L 14 19.414062 L 15.066406 19.414062 C 15.800781 19.414062 16.332031 18.945312 16.332031 18.214844 C 16.332031 17.546875 15.867188 17.011719 15.132812 17.011719 Z M 12 20.613281 L 13 20.613281 L 11.601562 18.8125 L 13 17.078125 L 12 17.078125 L 11.132812 18.214844 L 10.265625 17.078125 L 9.265625 17.078125 L 10.667969 18.8125 L 9.265625 20.546875 L 10.265625 20.546875 L 11.132812 19.414062 Z M 9 17.8125 L 9 17.078125 L 6.199219 17.078125 L 6.199219 20.613281 L 9 20.613281 L 9 19.878906 L 7 19.878906 L 7 19.148438 L 8.933594 19.148438 L 8.933594 18.414062 L 7 18.414062 L 7 17.746094 L 9 17.746094 Z M 25.199219 11.546875 L 26.601562 13.679688 L 27.601562 13.679688 L 27.601562 10.148438 L 26.800781 10.148438 L 26.800781 12.480469 L 26.601562 12.148438 L 25.332031 10.148438 L 24.265625 10.148438 L 24.265625 13.679688 L 25.066406 13.679688 L 25.066406 11.28125 Z M 21.734375 11.480469 L 22 10.746094 L 22.265625 11.480469 L 22.601562 12.28125 L 21.398438 12.28125 Z M 23.132812 13.679688 L 24 13.679688 L 22.464844 10.148438 L 21.398438 10.148438 L 19.867188 13.679688 L 20.734375 13.679688 L 21.066406 12.945312 L 22.800781 12.945312 Z M 19.398438 13.679688 L 19.734375 12.945312 L 19.535156 12.945312 C 18.933594 12.945312 18.601562 12.546875 18.601562 11.945312 L 18.601562 11.878906 C 18.601562 11.28125 18.933594 10.878906 19.535156 10.878906 L 20.398438 10.878906 L 20.398438 10.148438 L 19.464844 10.148438 C 18.398438 10.148438 17.800781 10.878906 17.800781 11.878906 L 17.800781 11.945312 C 17.800781 13.011719 18.398438 13.679688 19.398438 13.679688 Z M 16.398438 13.679688 L 17.199219 13.679688 L 17.199219 10.214844 L 16.398438 10.214844 Z M 14.667969 10.878906 C 15 10.878906 15.132812 11.078125 15.132812 11.28125 C 15.132812 11.480469 15 11.679688 14.667969 11.679688 L 13.667969 11.679688 L 13.667969 10.8125 Z M 13.667969 12.414062 L 14.066406 12.414062 L 15.132812 13.679688 L 16.132812 13.679688 L 14.933594 12.347656 C 15.535156 12.214844 15.867188 11.8125 15.867188 11.28125 C 15.867188 10.613281 15.398438 10.148438 14.667969 10.148438 L 12.800781 10.148438 L 12.800781 13.679688 L 13.601562 13.679688 Z M 12.199219 10.878906 L 12.199219 10.148438 L 9.398438 10.148438 L 9.398438 13.679688 L 12.199219 13.679688 L 12.199219 12.945312 L 10.199219 12.945312 L 10.199219 12.214844 L 12.132812 12.214844 L 12.132812 11.480469 L 10.199219 11.480469 L 10.199219 10.8125 L 12.199219 10.8125 Z M 6.132812 13.679688 L 6.867188 13.679688 L 7.867188 10.8125 L 7.867188 13.679688 L 8.667969 13.679688 L 8.667969 10.148438 L 7.332031 10.148438 L 6.535156 12.546875 L 5.734375 10.148438 L 4.398438 10.148438 L 4.398438 13.679688 L 5.199219 13.679688 L 5.199219 10.8125 Z M 1.800781 11.480469 L 2.066406 10.746094 L 2.332031 11.480469 L 2.667969 12.28125 L 1.464844 12.28125 Z M 3.199219 13.679688 L 4.066406 13.679688 L 2.535156 10.148438 L 1.535156 10.148438 L 0 13.679688 L 0.867188 13.679688 L 1.199219 12.945312 L 2.933594 12.945312 Z M 3.199219 13.679688 "/>
</g>
</svg>
