<svg width="205" height="221" viewBox="0 0 205 221" fill="none" xmlns="http://www.w3.org/2000/svg">
<path d="M16.2547 15.8407V18.3269H1.99487V15.8407H16.2547ZM10.4536 9.76817V24.9139H7.81025V9.76817H10.4536Z" fill="#FF7152"/>
<path d="M16.2547 62.3954V64.8816H1.99487V62.3954H16.2547ZM10.4536 56.3229V71.4686H7.81025V56.3229H10.4536Z" fill="#E5E5E5"/>
<path d="M16.2547 108.949V111.435H1.99487V108.949H16.2547ZM10.4536 102.877V118.022H7.81025V102.877H10.4536Z" fill="#E5E5E5"/>
<path d="M62.8094 15.8407V18.3269H48.5496V15.8407H62.8094ZM57.0083 9.76817V24.9139H54.3649V9.76817H57.0083Z" fill="#E5E5E5"/>
<path d="M62.8094 62.3954V64.8816H48.5496V62.3954H62.8094ZM57.0083 56.3229V71.4686H54.3649V56.3229H57.0083Z" fill="#E5E5E5"/>
<path d="M62.8094 108.949V111.435H48.5496V108.949H62.8094ZM57.0083 102.877V118.022H54.3649V102.877H57.0083Z" fill="#E5E5E5"/>
<path d="M62.8094 155.503V157.989H48.5496V155.503H62.8094ZM57.0083 149.43V164.576H54.3649V149.43H57.0083Z" fill="#E5E5E5"/>
<path d="M109.364 15.8407V18.3269H95.1038V15.8407H109.364ZM103.562 9.76817V24.9139H100.919V9.76817H103.562Z" fill="#E5E5E5"/>
<path d="M109.364 62.3954V64.8816H95.1038V62.3954H109.364ZM103.562 56.3229V71.4686H100.919V56.3229H103.562Z" fill="#E5E5E5"/>
<path d="M109.364 108.949V111.435H95.1038V108.949H109.364ZM103.562 102.877V118.022H100.919V102.877H103.562Z" fill="#6246E5"/>
<path d="M109.364 155.503V157.989H95.1038V155.503H109.364ZM103.562 149.43V164.576H100.919V149.43H103.562Z" fill="#E5E5E5"/>
<path d="M109.364 202.058V204.544H95.1038V202.058H109.364ZM103.562 195.985V211.131H100.919V195.985H103.562Z" fill="#E5E5E5"/>
<path d="M155.918 15.8407V18.3269H141.658V15.8407H155.918ZM150.116 9.76817V24.9139H147.473V9.76817H150.116Z" fill="#E5E5E5"/>
<path d="M155.918 62.3954V64.8816H141.658V62.3954H155.918ZM150.116 56.3229V71.4686H147.473V56.3229H150.116Z" fill="#E5E5E5"/>
<path d="M155.918 108.949V111.435H141.658V108.949H155.918ZM150.116 102.877V118.022H147.473V102.877H150.116Z" fill="#E5E5E5"/>
<path d="M155.918 155.503V157.989H141.658V155.503H155.918ZM150.116 149.43V164.576H147.473V149.43H150.116Z" fill="#E5E5E5"/>
<path d="M155.918 202.058V204.544H141.658V202.058H155.918ZM150.116 195.985V211.131H147.473V195.985H150.116Z" fill="#E5E5E5"/>
<path d="M202.472 15.8407V18.3269H188.212V15.8407H202.472ZM196.671 9.76817V24.9139H194.028V9.76817H196.671Z" fill="#E5E5E5"/>
<path d="M202.472 62.3954V64.8816H188.212V62.3954H202.472ZM196.671 56.3229V71.4686H194.028V56.3229H196.671Z" fill="#E5E5E5"/>
<path d="M202.472 108.949V111.435H188.212V108.949H202.472ZM196.671 102.877V118.022H194.028V102.877H196.671Z" fill="#E5E5E5"/>
<path d="M202.472 155.503V157.989H188.212V155.503H202.472ZM196.671 149.43V164.576H194.028V149.43H196.671Z" fill="#E5E5E5"/>
<path d="M202.472 202.058V204.544H188.212V202.058H202.472ZM196.671 195.985V211.131H194.028V195.985H196.671Z" fill="#E5E5E5"/>
</svg>
