<?xml version="1.0" encoding="UTF-8"?>
<svg xmlns="http://www.w3.org/2000/svg" xmlns:xlink="http://www.w3.org/1999/xlink" width="500px" height="106px" viewBox="0 0 500 106" version="1.1">
<defs>
<clipPath id="clip1">
  <path d="M 0.386719 10.601562 L 91 10.601562 L 91 95.792969 L 0.386719 95.792969 Z M 0.386719 10.601562 "/>
</clipPath>
<clipPath id="clip2">
  <path d="M 473 72 L 498.027344 72 L 498.027344 89 L 473 89 Z M 473 72 "/>
</clipPath>
</defs>
<g id="surface1">
<g clip-path="url(#clip1)" clip-rule="nonzero">
<path style=" stroke:none;fill-rule:nonzero;fill:rgb(93.72549%,20%,27.45098%);fill-opacity:1;" d="M 71.695312 95.792969 L 18.835938 95.792969 C 8.664062 95.792969 0.386719 87.9375 0.386719 78.253906 L 0.386719 28.101562 C 0.386719 18.453125 8.664062 10.601562 18.835938 10.601562 L 71.695312 10.601562 C 81.90625 10.601562 90.144531 18.453125 90.144531 28.101562 L 90.144531 78.253906 C 90.183594 87.9375 81.90625 95.792969 71.695312 95.792969 Z M 71.695312 95.792969 "/>
</g>
<path style=" stroke:none;fill-rule:nonzero;fill:rgb(9.803922%,11.764706%,23.137255%);fill-opacity:1;" d="M 32.398438 48.335938 C 32.398438 47.625 31.882812 47.136719 31.136719 47.136719 L 22.382812 47.136719 C 21.636719 47.136719 21.121094 47.625 21.121094 48.335938 L 21.121094 56.601562 C 21.121094 57.308594 21.636719 57.796875 22.382812 57.796875 L 31.09375 57.796875 C 31.84375 57.796875 32.355469 57.308594 32.355469 56.601562 L 32.355469 48.335938 Z M 32.398438 48.335938 "/>
<path style=" stroke:none;fill-rule:nonzero;fill:rgb(9.803922%,11.764706%,23.137255%);fill-opacity:1;" d="M 51.671875 66.660156 C 51.671875 65.949219 51.121094 65.460938 50.410156 65.460938 L 41.699219 65.460938 C 40.949219 65.460938 40.4375 65.949219 40.4375 66.660156 L 40.4375 74.925781 C 40.4375 75.636719 40.949219 76.121094 41.699219 76.121094 L 50.410156 76.121094 C 51.160156 76.121094 51.671875 75.636719 51.671875 74.925781 Z M 51.671875 66.660156 "/>
<path style=" stroke:none;fill-rule:nonzero;fill:rgb(99.215686%,85.882353%,19.607843%);fill-opacity:1;" d="M 51.671875 48.335938 C 51.671875 47.625 51.160156 47.136719 50.410156 47.136719 L 41.699219 47.136719 C 40.949219 47.136719 40.4375 47.625 40.4375 48.335938 L 40.4375 56.601562 C 40.4375 57.308594 40.949219 57.796875 41.699219 57.796875 L 50.410156 57.796875 C 51.160156 57.796875 51.671875 57.308594 51.671875 56.601562 Z M 51.671875 48.335938 "/>
<path style=" stroke:none;fill-rule:nonzero;fill:rgb(9.803922%,11.764706%,23.137255%);fill-opacity:1;" d="M 302.34375 57.722656 C 303.605469 49.308594 308.253906 43.808594 317.480469 43.808594 C 326.941406 43.808594 331.945312 48.96875 332.65625 57.722656 Z M 317.714844 35.542969 C 302.933594 35.542969 291.148438 45.640625 291.148438 62.359375 C 291.148438 79.488281 301.554688 89.996094 319.09375 89.996094 C 329.1875 89.996094 337.582031 85.769531 342.789062 79.898438 C 343.105469 79.597656 343.21875 79.300781 343.21875 79 C 343.21875 78.703125 343.105469 78.402344 342.789062 78.101562 L 337.898438 73.578125 C 337.582031 73.277344 337.269531 73.167969 336.953125 73.167969 C 336.636719 73.167969 336.324219 73.355469 336.007812 73.691406 C 331.988281 77.839844 326.742188 81.355469 319.214844 81.355469 C 308.21875 81.355469 302.933594 74.925781 302.105469 65.613281 L 342.90625 65.613281 C 343.65625 65.613281 344.167969 65.089844 344.167969 64.414062 L 344.167969 62.394531 C 344.167969 47.0625 334.390625 35.542969 317.714844 35.542969 Z M 317.714844 35.542969 "/>
<path style=" stroke:none;fill-rule:nonzero;fill:rgb(9.803922%,11.764706%,23.137255%);fill-opacity:1;" d="M 176.667969 17.894531 L 167.835938 17.894531 C 167.085938 17.894531 166.574219 18.417969 166.574219 19.089844 L 166.574219 47.324219 L 130.742188 47.324219 L 130.742188 19.125 C 130.742188 18.417969 130.230469 17.929688 129.480469 17.929688 L 120.652344 17.929688 C 119.902344 17.929688 119.390625 18.453125 119.390625 19.125 L 119.390625 87.265625 C 119.390625 87.976562 119.902344 88.460938 120.652344 88.460938 L 129.480469 88.460938 C 130.230469 88.460938 130.742188 87.9375 130.742188 87.265625 L 130.742188 56.824219 L 166.574219 56.824219 L 166.574219 87.265625 C 166.574219 87.976562 167.085938 88.460938 167.835938 88.460938 L 176.667969 88.460938 C 177.414062 88.460938 177.929688 87.9375 177.929688 87.265625 L 177.929688 19.125 C 177.96875 18.417969 177.414062 17.894531 176.667969 17.894531 Z M 176.667969 17.894531 "/>
<path style=" stroke:none;fill-rule:nonzero;fill:rgb(9.803922%,11.764706%,23.137255%);fill-opacity:1;" d="M 363.523438 17.894531 L 355.007812 17.894531 C 354.257812 17.894531 353.746094 18.417969 353.746094 19.089844 L 353.746094 87.265625 C 353.746094 87.976562 354.257812 88.460938 355.007812 88.460938 L 363.523438 88.460938 C 364.269531 88.460938 364.785156 87.9375 364.785156 87.265625 L 364.785156 19.125 C 364.785156 18.417969 364.230469 17.894531 363.523438 17.894531 Z M 363.523438 17.894531 "/>
<path style=" stroke:none;fill-rule:nonzero;fill:rgb(9.803922%,11.764706%,23.137255%);fill-opacity:1;" d="M 216.886719 81.132812 C 205.097656 81.132812 198.832031 72.753906 198.832031 62.769531 C 198.832031 52.785156 205.097656 44.40625 216.886719 44.40625 C 228.671875 44.40625 234.941406 52.785156 234.941406 62.769531 C 234.941406 72.753906 228.671875 81.132812 216.886719 81.132812 Z M 216.886719 35.542969 C 201.039062 35.542969 187.753906 46.652344 187.753906 62.769531 C 187.753906 78.886719 201.039062 89.996094 216.886719 89.996094 C 232.734375 89.996094 246.019531 78.886719 246.019531 62.769531 C 246.019531 46.652344 232.691406 35.542969 216.886719 35.542969 Z M 216.886719 35.542969 "/>
<path style=" stroke:none;fill-rule:nonzero;fill:rgb(9.803922%,11.764706%,23.137255%);fill-opacity:1;" d="M 284.644531 37.152344 L 270.847656 37.152344 L 270.847656 20.097656 C 270.847656 19.203125 269.902344 18.789062 269.273438 19.390625 L 260.679688 27.542969 C 260.167969 28.027344 259.8125 28.550781 259.8125 29.335938 L 259.8125 37.152344 L 250.351562 37.152344 C 249.601562 37.152344 249.089844 37.640625 249.089844 38.347656 L 249.089844 43.996094 C 249.089844 44.707031 249.601562 45.195312 250.351562 45.195312 L 259.8125 45.195312 L 259.8125 72.71875 C 259.8125 82.292969 264.582031 88.460938 274.671875 88.460938 L 284.644531 88.460938 C 285.394531 88.460938 285.910156 87.976562 285.910156 87.265625 L 285.910156 80.832031 C 285.910156 80.121094 285.394531 79.636719 284.644531 79.636719 L 277.632812 79.636719 C 272.625 79.636719 270.847656 77.804688 270.847656 73.09375 L 270.847656 45.230469 L 284.644531 45.230469 C 285.394531 45.230469 285.910156 44.746094 285.910156 44.035156 L 285.910156 38.386719 C 285.945312 37.675781 285.394531 37.152344 284.644531 37.152344 Z M 284.644531 37.152344 "/>
<path style=" stroke:none;fill-rule:nonzero;fill:rgb(9.803922%,11.764706%,23.137255%);fill-opacity:1;" d="M 428.097656 84.085938 L 424.433594 84.085938 C 424.074219 84.085938 423.800781 84.3125 423.800781 84.683594 L 423.800781 87.9375 C 423.800781 88.273438 424.039062 88.535156 424.433594 88.535156 L 428.097656 88.535156 C 428.453125 88.535156 428.726562 88.3125 428.726562 87.9375 L 428.726562 84.683594 C 428.726562 84.347656 428.492188 84.085938 428.097656 84.085938 Z M 428.097656 84.085938 "/>
<path style=" stroke:none;fill-rule:nonzero;fill:rgb(9.803922%,11.764706%,23.137255%);fill-opacity:1;" d="M 461.167969 85.734375 C 457.738281 85.734375 456.003906 83.527344 456.003906 80.609375 C 456.003906 77.804688 457.699219 75.484375 461.167969 75.484375 C 464.597656 75.484375 466.332031 77.804688 466.332031 80.609375 C 466.292969 83.527344 464.597656 85.734375 461.167969 85.734375 Z M 461.167969 72.382812 C 456.398438 72.382812 452.335938 75.746094 452.335938 80.648438 C 452.335938 85.65625 456.398438 88.910156 461.167969 88.910156 C 465.9375 88.910156 469.996094 85.65625 469.996094 80.648438 C 469.996094 75.746094 465.9375 72.382812 461.167969 72.382812 Z M 461.167969 72.382812 "/>
<path style=" stroke:none;fill-rule:nonzero;fill:rgb(9.803922%,11.764706%,23.137255%);fill-opacity:1;" d="M 398.683594 57.722656 C 389.972656 55.925781 385.714844 54.503906 385.714844 50.242188 C 385.714844 46.203125 389.539062 43.808594 396.355469 43.808594 C 402.429688 43.808594 407.195312 46.425781 410.273438 50.578125 C 410.707031 51.175781 411.453125 51.289062 412.085938 50.878906 L 417.839844 47.363281 C 418.472656 46.949219 418.707031 46.351562 418.273438 45.640625 C 413.585938 38.871094 406.171875 35.542969 396.476562 35.542969 C 385.636719 35.542969 375.976562 40.59375 375.976562 50.878906 C 375.976562 61.683594 385.003906 64.492188 396.910156 66.921875 C 405.304688 68.640625 409.011719 69.949219 409.011719 74.699219 C 409.011719 79.335938 404.632812 81.769531 397.304688 81.769531 C 389.65625 81.769531 384.769531 78.925781 381.378906 74.214844 C 380.945312 73.503906 380.195312 73.316406 379.449219 73.800781 L 373.691406 77.578125 C 373.058594 77.992188 372.941406 78.589844 373.257812 79.1875 C 377.59375 86.144531 385.675781 90.070312 397.183594 90.070312 C 411.535156 90.070312 419.8125 83.300781 419.8125 74.25 C 419.8125 63.667969 410.585938 60.265625 398.683594 57.722656 Z M 398.683594 57.722656 "/>
<g clip-path="url(#clip2)" clip-rule="nonzero">
<path style=" stroke:none;fill-rule:nonzero;fill:rgb(9.803922%,11.764706%,23.137255%);fill-opacity:1;" d="M 491.878906 72.382812 C 489.433594 72.382812 487.816406 73.316406 486.476562 74.8125 C 485.609375 73.429688 483.796875 72.382812 481.589844 72.382812 C 479.261719 72.382812 477.804688 73.429688 476.9375 74.589844 L 476.9375 73.429688 C 476.9375 73.09375 476.703125 72.832031 476.308594 72.832031 L 473.863281 72.832031 C 473.507812 72.832031 473.230469 73.054688 473.230469 73.429688 L 473.230469 87.976562 C 473.230469 88.3125 473.46875 88.574219 473.863281 88.574219 L 476.421875 88.574219 C 476.78125 88.574219 477.054688 88.351562 477.054688 87.976562 L 477.054688 80.421875 C 477.054688 77.503906 477.921875 75.523438 480.601562 75.523438 C 482.929688 75.523438 483.679688 76.792969 483.679688 78.890625 L 483.679688 87.9375 C 483.679688 88.277344 483.914062 88.539062 484.308594 88.539062 L 486.871094 88.539062 C 487.226562 88.539062 487.5 88.3125 487.5 87.9375 L 487.5 80.382812 C 487.5 77.46875 488.488281 75.484375 491.167969 75.484375 C 493.375 75.484375 494.242188 76.757812 494.242188 78.851562 L 494.242188 87.902344 C 494.242188 88.238281 494.480469 88.5 494.875 88.5 L 497.4375 88.5 C 497.789062 88.5 498.066406 88.277344 498.066406 87.902344 L 498.066406 78.367188 C 497.988281 74.8125 495.664062 72.382812 491.878906 72.382812 Z M 491.878906 72.382812 "/>
</g>
<path style=" stroke:none;fill-rule:nonzero;fill:rgb(9.803922%,11.764706%,23.137255%);fill-opacity:1;" d="M 448.273438 83.300781 C 447.917969 82.964844 447.523438 83.078125 447.289062 83.300781 C 445.59375 85.058594 444.453125 85.734375 442.636719 85.734375 C 439.5625 85.734375 437.984375 83.527344 437.984375 80.609375 C 437.984375 77.804688 439.324219 75.484375 442.519531 75.484375 C 444.609375 75.484375 445.710938 76.308594 446.816406 77.46875 C 447.050781 77.691406 447.445312 77.804688 447.800781 77.578125 L 449.261719 76.421875 C 449.613281 76.195312 449.890625 75.820312 449.496094 75.375 C 448.15625 73.617188 445.832031 72.34375 442.519531 72.34375 C 437.472656 72.34375 434.199219 75.597656 434.199219 80.609375 C 434.199219 85.621094 437.511719 88.984375 442.398438 88.984375 C 445.832031 88.984375 448.273438 87.601562 449.890625 85.507812 C 450.128906 85.171875 450.128906 84.910156 449.890625 84.683594 Z M 448.273438 83.300781 "/>
<path style=" stroke:none;fill-rule:nonzero;fill:rgb(9.803922%,11.764706%,23.137255%);fill-opacity:1;" d="M 74.027344 31.394531 C 74.027344 28.363281 71.464844 25.933594 68.269531 25.933594 L 25.339844 25.933594 C 24.472656 25.933594 23.960938 26.230469 23.449219 26.753906 L 14.816406 34.910156 C 14.1875 35.507812 14.621094 36.441406 15.566406 36.441406 L 62.949219 36.441406 L 62.949219 81.394531 C 62.949219 82.292969 63.894531 82.703125 64.566406 82.105469 L 73.199219 73.953125 C 73.75 73.429688 74.027344 72.941406 74.027344 72.121094 Z M 74.027344 31.394531 "/>
</g>
</svg>
